<?xml version="1.0" standalone="no"?>
<!DOCTYPE svg PUBLIC "-//W3C//DTD SVG 20010904//EN"
 "http://www.w3.org/TR/2001/REC-SVG-20010904/DTD/svg10.dtd">
<svg version="1.0" xmlns="http://www.w3.org/2000/svg"
 width="360.000000pt" height="360.000000pt" viewBox="0 0 360.000000 360.000000"
 preserveAspectRatio="xMidYMid meet">
<metadata>
Created by potrace 1.14, written by Peter Selinger 2001-2017
</metadata>
<g transform="translate(0.000000,360.000000) scale(0.100000,-0.100000)"
fill="#000000" stroke="none">
<path d="M1045 3333 c-2 -7 -20 -13 -40 -13 -19 0 -35 -4 -35 -10 0 -5 -11
-10 -24 -10 -14 0 -28 -5 -31 -10 -4 -6 -12 -10 -18 -8 -10 2 -48 -16 -118
-58 -11 -6 -27 -18 -37 -27 -10 -10 -22 -17 -26 -17 -11 0 -146 -139 -146
-150 0 -5 -12 -21 -27 -36 -16 -15 -22 -23 -15 -19 11 6 11 3 0 -14 -7 -12
-16 -21 -20 -21 -5 0 -8 -9 -8 -20 0 -11 -4 -20 -9 -20 -5 0 -11 -10 -13 -22
-2 -13 -8 -22 -14 -21 -5 1 -9 -11 -8 -25 0 -15 -5 -36 -13 -48 -7 -11 -10
-24 -6 -28 4 -4 2 -10 -4 -14 -6 -4 -12 -25 -14 -47 -2 -22 -7 -43 -12 -46
-10 -7 -12 -83 -3 -98 4 -6 4 -11 -1 -11 -12 0 -8 -149 6 -199 7 -23 10 -49 7
-56 -3 -8 2 -19 10 -26 8 -6 12 -14 10 -17 -3 -2 -1 -13 5 -23 7 -14 6 -19 -3
-19 -8 0 -6 -5 5 -11 9 -5 17 -19 17 -29 0 -10 4 -21 9 -25 5 -3 12 -19 16
-35 4 -16 14 -34 23 -40 9 -5 13 -10 8 -10 -4 0 4 -16 18 -35 15 -19 24 -35
20 -35 -4 0 5 -11 20 -25 17 -16 24 -30 19 -38 -4 -6 -9 -19 -10 -27 -3 -11
-5 -1444 -3 -1568 0 -15 5 -22 13 -19 6 2 20 0 29 -5 10 -5 18 -5 18 0 0 5 10
8 23 8 15 -1 22 4 21 16 -1 10 2 16 6 13 12 -7 7 69 -5 77 -7 5 -6 8 1 8 11 0
10 51 -1 71 -5 7 -4 10 2 6 13 -8 11 146 -2 155 -7 5 -6 8 1 8 11 0 10 51 -1
71 -5 7 -4 10 2 6 13 -8 11 146 -2 155 -7 5 -6 8 1 8 11 0 10 51 -1 71 -5 7
-4 10 1 6 8 -5 11 705 3 728 -8 20 16 17 26 -4 5 -11 13 -21 17 -21 4 0 5 -7
2 -15 -4 -8 -2 -15 3 -15 5 0 24 -31 43 -70 19 -38 37 -70 42 -70 4 0 7 -3 6
-7 -1 -5 6 -23 15 -40 10 -18 14 -33 10 -33 -4 0 2 -7 13 -15 10 -8 15 -15 10
-15 -5 0 -1 -9 9 -20 10 -11 14 -20 9 -20 -5 0 -1 -7 9 -14 10 -8 17 -16 16
-18 -3 -3 40 -89 95 -188 20 -36 39 -73 42 -83 4 -9 10 -17 15 -17 5 0 6 -7 3
-15 -4 -8 1 -17 10 -21 9 -3 16 -11 16 -18 0 -6 13 -36 30 -66 16 -30 37 -71
46 -90 9 -19 25 -47 36 -62 11 -16 16 -28 11 -28 -4 0 -3 -4 2 -8 16 -12 75
-129 68 -136 -4 -3 -1 -6 5 -6 6 0 23 -27 39 -60 15 -33 31 -60 35 -60 4 0 8
-9 8 -19 0 -11 3 -21 8 -23 4 -1 20 -28 36 -59 28 -56 68 -89 82 -68 5 8 9 8
13 0 8 -12 75 27 77 44 1 12 26 68 34 75 3 3 16 26 29 53 13 26 25 47 27 47 2
0 30 -26 63 -57 72 -70 87 -83 100 -83 5 0 12 -7 15 -16 3 -8 10 -13 15 -9 6
3 14 -2 19 -11 5 -9 11 -15 13 -14 2 0 29 -10 60 -24 31 -13 65 -26 75 -28 10
-2 22 -7 25 -12 4 -5 20 -8 35 -8 16 0 34 -5 41 -10 7 -5 17 -7 23 -3 5 3 10
2 10 -2 0 -9 68 -9 77 0 3 3 15 2 27 -3 13 -4 29 -4 36 0 8 5 19 6 25 2 14 -9
47 -9 68 1 9 4 17 4 17 0 0 -12 116 -7 149 7 16 6 38 10 48 8 10 -2 23 2 28 9
6 7 22 14 38 15 15 1 27 6 27 10 0 4 7 8 15 8 8 0 34 11 57 25 24 14 51 28 61
32 9 3 17 9 17 14 0 5 5 9 11 9 35 0 249 256 233 281 -3 6 3 13 14 16 14 3 18
11 15 24 -3 10 0 19 6 19 6 0 11 13 11 29 0 16 6 31 14 34 9 4 12 14 9 27 -3
12 -1 25 6 29 6 4 11 20 12 37 1 16 5 40 10 54 12 32 17 260 6 260 -5 0 -5 5
-2 10 3 5 2 10 -2 10 -5 0 -8 12 -8 28 1 15 -5 40 -13 56 -7 15 -12 37 -9 47
3 11 1 19 -3 19 -5 0 -12 10 -16 23 -8 25 -69 152 -87 181 -24 38 -112 134
-165 179 -32 27 -41 47 -22 47 13 0 154 139 156 155 1 7 12 23 23 34 12 12 19
26 16 30 -2 5 2 12 11 15 8 3 12 10 9 16 -3 5 -3 10 2 10 4 0 17 21 27 48 11
26 26 63 35 82 8 19 14 39 12 44 -1 5 1 16 5 25 10 24 14 42 16 84 2 20 7 37
12 37 5 0 6 3 3 7 -4 3 -2 12 4 20 6 7 8 13 3 13 -5 0 -9 33 -10 72 -1 91 -8
154 -22 199 -6 19 -17 55 -24 82 -7 26 -16 47 -20 47 -4 0 -8 9 -8 20 0 11 -5
20 -10 20 -6 0 -9 3 -8 8 3 10 -29 70 -70 127 -35 50 -159 175 -173 175 -4 0
-14 6 -21 13 -22 21 -135 77 -142 70 -3 -3 -6 -2 -6 4 0 5 -7 10 -15 11 -8 1
-22 3 -30 4 -8 1 -15 4 -15 8 0 4 -6 7 -12 8 -7 0 -24 3 -38 6 -92 21 -330 27
-420 11 -19 -3 -45 -7 -56 -9 -12 -2 -31 -9 -44 -16 -12 -6 -24 -9 -27 -6 -3
3 -15 -1 -27 -9 -11 -8 -28 -15 -38 -15 -10 0 -18 -4 -18 -10 0 -5 -9 -10 -20
-10 -11 0 -20 -4 -20 -10 0 -5 -7 -10 -15 -10 -8 0 -15 -5 -15 -12 0 -6 -3 -8
-6 -5 -4 3 -16 0 -28 -8 -27 -19 -28 -19 -62 10 -15 13 -30 22 -33 20 -2 -3
-11 4 -20 14 -9 10 -26 21 -38 25 -13 4 -23 11 -23 16 0 5 -7 7 -15 4 -8 -4
-15 -2 -15 3 0 13 -62 36 -139 52 -24 5 -46 13 -50 17 -3 5 -99 9 -213 9 -157
0 -209 -3 -213 -12z m353 -109 c13 -9 22 -10 22 -4 0 7 6 8 19 1 10 -6 21 -8
23 -6 3 3 21 -1 40 -9 20 -9 38 -12 42 -9 3 4 6 1 6 -5 0 -7 7 -12 15 -12 17
0 107 -49 117 -64 4 -6 8 -7 8 -3 0 4 12 -4 26 -18 l26 -26 -22 -19 c-12 -10
-20 -21 -18 -23 2 -3 -7 -17 -19 -31 -13 -15 -23 -31 -23 -36 0 -6 -4 -10 -10
-10 -5 0 -10 -7 -10 -15 0 -8 -4 -15 -10 -15 -5 0 -10 -9 -10 -20 0 -11 -3
-20 -8 -20 -10 0 -58 -121 -54 -138 2 -8 -1 -11 -7 -7 -7 4 -11 -6 -11 -27 0
-19 -6 -43 -14 -53 -10 -13 -11 -25 -5 -37 5 -9 5 -19 1 -22 -5 -3 -8 -15 -7
-28 1 -13 -2 -31 -7 -42 -7 -13 -7 -16 1 -12 8 5 8 0 2 -17 -6 -16 -6 -28 2
-36 8 -8 8 -11 -2 -11 -7 0 -10 -4 -7 -9 4 -5 9 -36 12 -68 6 -70 8 -81 21
-113 6 -14 7 -26 2 -28 -5 -2 -2 -13 6 -25 8 -12 15 -29 15 -39 0 -9 7 -24 16
-32 8 -9 13 -16 10 -16 -4 0 3 -18 14 -40 11 -22 17 -40 13 -40 -5 0 0 -5 10
-11 9 -5 17 -17 17 -24 0 -8 5 -15 12 -15 6 0 9 -3 5 -6 -3 -3 5 -18 19 -32
29 -33 29 -34 2 -58 -14 -12 -18 -14 -13 -4 4 8 -3 5 -17 -7 -13 -13 -30 -23
-36 -23 -7 0 -12 -5 -12 -11 0 -6 -6 -9 -14 -6 -8 3 -20 -1 -26 -9 -7 -8 -23
-14 -36 -14 -13 0 -24 -5 -24 -11 0 -6 -8 -9 -17 -6 -10 2 -30 -3 -45 -10 -15
-7 -48 -12 -73 -11 -25 0 -48 -2 -52 -5 -3 -4 -12 -2 -19 4 -7 6 -19 7 -26 3
-17 -11 -38 -14 -38 -6 0 4 -11 7 -25 7 -14 0 -25 -3 -25 -7 0 -4 -8 -4 -17
-1 -10 4 -32 7 -50 6 -18 0 -37 5 -42 11 -6 7 -24 11 -41 10 -16 -1 -27 2 -24
7 3 5 -6 9 -20 9 -14 0 -41 9 -61 20 -20 11 -42 20 -49 20 -8 0 -16 7 -20 15
-3 8 -15 15 -26 15 -12 0 -18 5 -15 10 3 6 1 10 -5 10 -17 0 -157 144 -165
169 -3 11 -11 21 -16 21 -5 0 -9 9 -9 20 0 11 -4 20 -10 20 -5 0 -10 9 -10 20
0 11 -5 20 -11 20 -6 0 -9 6 -6 14 3 8 -1 20 -9 27 -8 6 -12 14 -10 16 2 3 -2
23 -10 46 -8 23 -14 51 -12 62 1 11 -2 26 -7 34 -11 19 -15 231 -4 231 5 0 9
15 9 34 0 19 5 47 12 63 6 15 10 35 9 45 -1 9 3 19 9 23 5 3 10 15 10 25 0 10
3 20 8 22 4 2 19 28 34 58 42 83 188 240 225 240 7 0 13 5 13 10 0 6 7 10 15
10 8 0 15 5 15 10 0 6 9 10 20 10 11 0 20 5 20 12 0 6 3 9 6 5 4 -3 20 1 36 9
16 8 35 13 41 11 7 -2 18 3 26 10 7 8 23 13 35 12 11 -1 32 3 46 8 40 17 250
14 278 -3z m919 -27 c6 -4 14 -4 17 1 5 9 89 8 104 -2 6 -3 13 -2 16 3 4 5 21
5 43 1 20 -5 40 -7 44 -4 4 2 9 -3 13 -11 3 -8 12 -12 20 -9 16 6 107 -24 117
-39 3 -5 8 -8 10 -7 8 4 64 -25 72 -37 4 -7 15 -13 22 -13 8 0 15 -5 15 -12 0
-6 2 -9 5 -6 8 7 105 -89 105 -104 0 -6 3 -8 7 -5 6 7 40 -35 34 -42 -1 -2 1
-7 6 -10 11 -8 47 -64 48 -73 0 -4 6 -13 13 -19 6 -7 12 -20 12 -29 0 -9 3
-20 7 -24 4 -3 8 -16 10 -28 2 -12 7 -26 12 -32 5 -6 7 -19 6 -28 -2 -10 1
-18 7 -18 6 0 6 -6 -2 -15 -10 -12 -10 -16 2 -20 9 -4 14 -26 16 -67 2 -34 5
-65 8 -69 2 -4 0 -10 -6 -14 -7 -4 -7 -12 0 -26 6 -10 7 -19 3 -19 -5 0 -8
-18 -6 -40 1 -22 -2 -40 -6 -40 -5 0 -11 -11 -13 -25 -3 -14 -2 -25 2 -25 4 0
5 -11 2 -25 -2 -14 -8 -22 -13 -19 -5 3 -9 -6 -9 -21 0 -28 -37 -116 -54 -127
-6 -4 -7 -8 -3 -8 8 0 -43 -78 -67 -103 -8 -8 -13 -17 -10 -20 3 -3 -4 -8 -15
-12 -12 -3 -19 -9 -17 -13 2 -4 -2 -13 -10 -20 -8 -7 -14 -11 -14 -8 0 2 -18
-13 -40 -33 -25 -23 -50 -37 -63 -36 -43 3 -89 18 -93 30 -3 7 -17 11 -32 9
-15 -1 -29 2 -32 7 -4 5 -30 10 -58 10 -30 1 -56 7 -63 15 -8 10 -16 11 -30 3
-10 -5 -19 -6 -19 -2 0 4 -22 8 -50 8 -27 0 -50 -4 -50 -8 0 -5 -5 -5 -11 -1
-16 9 -91 7 -98 -4 -3 -5 -24 -9 -46 -9 -22 -1 -47 -3 -55 -6 -122 -47 -190
-63 -190 -46 0 5 -5 9 -12 9 -21 0 -57 41 -51 58 4 8 19 27 35 42 15 15 28 35
28 44 0 10 4 15 9 12 7 -5 20 19 25 47 0 4 7 11 14 16 8 5 13 11 13 15 -1 7 6
27 25 75 8 18 14 43 14 55 0 12 7 31 15 42 12 18 12 24 0 41 -21 29 -101 25
-128 -8 -10 -13 -14 -25 -9 -27 11 -3 4 -42 -7 -42 -4 0 -8 -12 -9 -27 -1 -16
-7 -29 -12 -31 -6 -2 -10 -14 -10 -27 0 -12 -7 -26 -16 -29 -8 -3 -12 -11 -9
-16 4 -6 -2 -19 -12 -28 -10 -9 -24 -30 -31 -45 -10 -24 -15 -26 -32 -17 -12
6 -28 27 -37 46 -9 19 -21 34 -25 34 -5 0 -6 5 -3 10 3 6 1 10 -4 10 -6 0 -10
3 -9 8 1 4 -5 21 -12 37 -7 17 -14 33 -14 37 -1 3 -4 10 -8 14 -5 4 -8 20 -8
36 0 20 -4 27 -12 22 -6 -4 -9 -3 -5 2 3 5 2 28 -3 52 -5 29 -4 42 4 42 6 0 3
5 -6 10 -14 9 -17 26 -16 100 1 50 4 90 7 90 3 0 7 20 9 45 2 26 8 58 14 73 6
15 12 34 13 42 1 17 30 88 45 110 5 8 17 29 26 47 9 18 27 44 40 58 13 14 24
30 24 36 0 18 29 9 35 -11 3 -11 11 -20 17 -20 5 0 8 -6 6 -12 -3 -7 1 -18 7
-25 7 -6 18 -32 26 -57 9 -31 20 -46 34 -50 22 -5 93 -2 99 5 7 9 -7 88 -15
83 -8 -4 -14 25 -10 49 0 4 -4 7 -9 7 -5 0 -10 9 -10 20 0 11 -4 20 -10 20 -5
0 -10 6 -10 14 0 8 -8 22 -17 32 -10 9 -18 24 -20 32 -2 18 35 54 48 46 5 -3
9 0 9 5 0 6 7 11 15 11 8 0 15 5 15 11 0 5 4 8 9 4 5 -3 12 -1 16 5 4 6 11 8
16 5 5 -4 9 -1 9 5 0 7 7 9 15 6 9 -3 18 0 21 7 2 7 14 14 27 15 34 3 51 7 62
13 6 3 26 6 44 8 19 1 36 3 38 5 5 5 38 0 50 -7z m-503 -1393 c11 -6 21 -15
23 -20 4 -12 -84 -104 -92 -96 -3 3 -5 -2 -5 -12 0 -9 -4 -14 -10 -11 -5 3
-10 1 -10 -5 0 -6 -13 -24 -30 -40 -16 -16 -30 -35 -30 -41 0 -6 -10 -21 -22
-33 -13 -12 -24 -29 -26 -37 -2 -7 -7 -15 -12 -17 -5 -2 -6 -10 -3 -18 3 -8 0
-14 -6 -14 -6 0 -11 -8 -11 -18 0 -10 -4 -22 -8 -28 -5 -5 -14 -29 -21 -54 -8
-25 -16 -52 -19 -60 -3 -8 -6 -18 -7 -22 -2 -5 -4 -11 -5 -15 -1 -5 -1 -23 0
-40 1 -18 -3 -33 -8 -33 -6 0 -9 -8 -7 -17 1 -10 0 -22 -3 -27 -8 -14 -2 -159
8 -171 4 -5 8 -23 8 -40 0 -16 1 -32 2 -35 1 -3 3 -12 5 -20 20 -84 56 -182
70 -192 7 -5 7 -8 0 -8 -5 0 -1 -7 9 -15 11 -8 14 -15 7 -15 -7 0 -10 -4 -7
-8 3 -5 -6 -27 -20 -51 -13 -24 -22 -47 -19 -51 3 -5 -4 -12 -15 -15 -14 -4
-18 -11 -12 -18 6 -8 2 -18 -10 -30 -17 -17 -19 -16 -35 18 -9 19 -20 35 -24
35 -4 0 -6 9 -4 20 2 11 1 19 -3 17 -4 -1 -7 1 -7 4 0 4 -9 16 -19 28 -11 12
-16 21 -12 21 4 0 -2 14 -14 30 -12 17 -18 30 -13 30 4 0 3 4 -2 8 -11 7 -63
101 -113 202 -15 30 -29 57 -32 60 -3 3 -16 28 -30 55 -14 28 -37 72 -52 98
-16 27 -26 53 -23 58 4 5 -1 9 -10 9 -9 0 -14 4 -10 9 3 5 -2 16 -10 25 -9 8
-15 18 -15 21 0 3 -11 28 -25 55 -14 27 -26 53 -26 57 0 5 -7 12 -15 16 -8 4
-14 19 -14 33 0 17 -4 23 -12 18 -7 -5 -9 -2 -5 9 3 9 2 17 -2 19 -4 2 -29 44
-56 93 -26 50 -52 96 -57 103 -6 6 -7 12 -3 12 5 0 1 8 -8 18 -10 10 -14 22
-11 25 4 4 -1 9 -10 13 -9 3 -16 15 -16 25 0 10 -5 19 -11 19 -5 0 -7 5 -3 11
5 8 9 8 14 -1 4 -6 13 -13 21 -14 18 -4 48 -15 76 -28 12 -6 32 -12 45 -13 13
-1 24 -4 26 -5 1 -1 7 -4 12 -5 6 -1 13 -4 18 -5 4 -1 15 -1 25 0 10 1 25 -4
33 -10 8 -7 14 -9 14 -5 0 4 6 2 14 -4 8 -7 17 -8 19 -4 3 5 29 6 59 3 29 -3
79 -3 111 0 32 3 61 2 63 -2 3 -4 15 -1 28 7 12 8 33 15 47 14 13 -1 40 5 59
11 53 19 63 23 85 27 11 2 22 8 23 13 2 6 12 10 23 10 10 0 19 5 19 10 0 6 6
10 14 10 7 0 25 9 40 21 14 11 26 18 26 15 0 -3 10 4 21 15 12 12 24 17 28 13
3 -5 15 -14 25 -20z m406 -19 c0 -8 -4 -15 -10 -15 -5 0 -10 -7 -10 -15 0 -19
-2 -19 -48 2 l-37 17 35 4 c19 2 39 8 45 13 14 14 25 11 25 -6z m310 2 c0 -4
4 -6 8 -3 4 2 14 1 22 -4 9 -5 19 -5 27 2 10 8 13 7 13 -4 0 -19 -46 -35 -100
-34 -38 1 -45 4 -46 21 0 11 1 23 4 28 5 10 72 5 72 -6z m-499 -102 c16 -9 29
-12 29 -8 0 4 5 2 12 -5 7 -7 25 -12 40 -12 21 0 28 -5 28 -19 0 -11 -3 -21
-7 -23 -9 -3 -56 -100 -53 -107 1 -2 -2 -7 -7 -10 -5 -3 -27 -42 -49 -86 -21
-44 -42 -82 -45 -85 -15 -13 -58 -103 -53 -111 3 -5 1 -9 -4 -9 -4 0 -30 -42
-56 -92 -27 -51 -55 -97 -63 -101 -7 -5 -11 -12 -8 -17 3 -5 -9 -33 -26 -62
-18 -29 -32 -59 -32 -65 0 -7 -4 -13 -8 -13 -3 0 -10 -10 -14 -22 -5 -13 -11
-32 -15 -43 -6 -18 -8 -17 -23 12 -9 18 -17 43 -17 58 0 14 -4 25 -9 25 -5 0
-9 10 -9 23 -2 83 -6 117 -12 117 -4 0 -7 20 -6 45 0 25 3 45 7 45 4 0 7 17 8
38 3 79 6 97 17 109 7 7 10 21 7 32 -3 10 0 22 6 25 6 4 11 18 11 32 0 13 5
24 10 24 6 0 10 9 10 20 0 11 4 20 8 20 4 0 12 12 18 28 6 15 12 32 14 37 3 6
16 22 30 37 47 52 60 68 53 68 -5 0 4 8 20 18 15 10 25 21 21 24 -3 4 3 9 14
12 11 4 31 17 46 29 32 28 68 32 107 12z m757 -7 c7 -10 19 -18 27 -18 17 0
92 -74 126 -124 13 -20 27 -36 32 -36 4 0 7 -9 7 -20 0 -11 4 -20 9 -20 5 0
15 -16 22 -35 7 -19 16 -35 19 -35 3 0 6 -10 7 -22 1 -11 6 -24 11 -27 5 -3
10 -14 10 -23 4 -41 6 -48 12 -48 4 0 7 -18 8 -41 1 -22 6 -48 11 -57 11 -22
10 -212 -2 -212 -4 0 -5 -4 -2 -10 3 -5 2 -10 -2 -10 -5 0 -8 -17 -7 -37 0
-21 -3 -41 -9 -44 -5 -4 -9 -18 -9 -32 0 -14 -6 -28 -13 -31 -8 -3 -11 -13 -8
-25 3 -12 1 -21 -6 -21 -6 0 -11 -9 -11 -20 0 -11 -4 -20 -10 -20 -5 0 -10 -6
-10 -12 0 -20 -57 -98 -65 -90 -4 4 -6 1 -3 -7 5 -16 -83 -106 -124 -127 -16
-8 -28 -18 -28 -22 0 -4 -27 -18 -60 -32 -33 -14 -60 -28 -60 -32 0 -5 -13 -8
-29 -8 -16 0 -31 -4 -33 -9 -1 -5 -19 -10 -38 -12 -19 -2 -39 -5 -45 -8 -5 -3
-22 -6 -37 -7 l-26 -1 3 84 c3 62 1 82 -8 76 -9 -5 -9 -3 -1 8 6 8 10 46 9 86
-1 48 2 70 9 66 7 -4 6 -1 0 6 -7 7 -9 29 -7 48 4 27 2 33 -8 28 -9 -6 -10 -4
-3 6 13 21 13 240 0 232 -8 -5 -8 -3 0 8 7 9 10 113 9 314 -1 165 3 308 7 317
5 10 19 17 31 17 32 -2 89 10 103 22 8 7 14 7 19 0 4 -7 14 -6 29 4 13 9 34
18 46 20 13 2 25 7 28 9 11 12 58 1 70 -16z m-459 -52 c5 -3 8 -281 7 -643 -1
-502 -4 -638 -13 -639 -7 -1 -16 -3 -20 -4 -5 -1 -12 -1 -18 0 -5 1 -26 3 -45
4 -19 1 -44 7 -54 13 -10 6 -27 8 -36 6 -10 -3 -21 0 -24 6 -4 6 -18 11 -31
11 -12 0 -25 6 -28 14 -4 9 -14 12 -26 9 -12 -3 -21 -1 -21 6 0 6 -9 11 -19
11 -10 0 -22 7 -25 16 -4 9 -9 14 -12 11 -3 -3 -15 2 -26 11 -11 9 -29 25 -40
35 -12 9 -27 17 -35 17 -7 0 -12 3 -11 8 3 7 -7 20 -64 84 -33 38 -34 52 -7
97 11 18 18 36 15 38 -3 3 5 14 17 24 12 10 16 18 10 19 -8 0 -5 8 7 20 11 11
22 31 26 45 3 14 10 25 15 25 5 0 9 7 9 15 0 8 5 15 10 15 6 0 9 3 9 8 -3 12
25 72 33 72 4 0 8 9 8 19 0 11 3 21 8 23 4 2 23 35 42 73 19 39 37 72 40 75 3
3 16 28 30 55 14 28 28 52 33 53 4 2 7 12 7 22 0 10 3 20 8 22 4 2 23 35 42
73 19 39 37 72 41 75 3 3 9 15 13 28 4 12 12 19 18 16 6 -4 8 -2 5 4 -4 5 7
35 25 65 30 53 46 62 77 43z"/>
</g>
</svg>
